<svg xmlns="http://www.w3.org/2000/svg" version="1.1" width="3300" height="2000"><g id="Notes"><style>text { font-family: monospace; text-anchor: middle; } text.emphasis { font-weight:bold; } text.lanchor { text-anchor: start; }</style><rect height="2200" id="artboard" fill="white" width="3300" x="0" y="0"/><text id="template-version" style="text-anchor: end;" transform="matrix(1 0 0 1 3036 1933)">Template v.1.0</text></g><g id="Guides"><line id="Baseline-S" style="fill:none;stroke:#27AAE1;opacity:1;stroke-width:0.577;" x1="263" x2="3036" y1="696" y2="696"/><line id="Capline-S" style="fill:none;stroke:#27AAE1;opacity:1;stroke-width:0.577;" x1="263" x2="3036" y1="625.541" y2="625.541"/><line id="Baseline-M" style="fill:none;stroke:#27AAE1;opacity:1;stroke-width:0.577;" x1="263" x2="3036" y1="1126" y2="1126"/><line id="Capline-M" style="fill:none;stroke:#27AAE1;opacity:1;stroke-width:0.577;" x1="263" x2="3036" y1="1055.54" y2="1055.54"/><line id="Baseline-L" style="fill:none;stroke:#27AAE1;opacity:1;stroke-width:0.577;" x1="263" x2="3036" y1="1556" y2="1556"/><line id="Capline-L" style="fill:none;stroke:#27AAE1;opacity:1;stroke-width:0.577;" x1="263" x2="3036" y1="1485.54" y2="1485.54"/></g><g id="Symbols"><g id="Ultralight-S" transform="matrix(1 0 0 1 517.792 696)"><g transform="translate(0 22)"><path d="M88.39 -103.70C71.42 -102.14 62.99 -92.38 59.80 -87.44L10.27 -1.63L70.03 -1.63L128.98 -103.70L88.39 -103.70Z"/><path d="M89.71 -35.57C80.72 -112.84 -11.43 -88.07 -11.43 -88.07L70.07 -1.63Z"/><path d="M57.97 -84.25L32.98 -40.94L70.03 -1.63L89.66 -35.65C86.56 -62.20 73.60 -76.70 57.97 -84.29Z"/><path d="M-16.75 -96.83L124.25 5.17L134.75 -9.53L-6.25 -111.53Z"/></g></g><g id="Thin-S" transform="matrix(1 0 0 1 814.015 696)"><g transform="translate(0 22)"><path d="M88.39 -103.70C71.42 -102.14 62.99 -92.38 59.80 -87.44L10.27 -1.63L70.03 -1.63L128.98 -103.70L88.39 -103.70Z"/><path d="M89.71 -35.57C80.72 -112.84 -11.43 -88.07 -11.43 -88.07L70.07 -1.63Z"/><path d="M57.97 -84.25L32.98 -40.94L70.03 -1.63L89.66 -35.65C86.56 -62.20 73.60 -76.70 57.97 -84.29Z"/><path d="M-16.75 -96.83L124.25 5.17L134.75 -9.53L-6.25 -111.53Z"/></g></g><g id="Light-S" transform="matrix(1 0 0 1 1109.75 696)"><g transform="translate(0 22)"><path d="M88.39 -103.70C71.42 -102.14 62.99 -92.38 59.80 -87.44L10.27 -1.63L70.03 -1.63L128.98 -103.70L88.39 -103.70Z"/><path d="M89.71 -35.57C80.72 -112.84 -11.43 -88.07 -11.43 -88.07L70.07 -1.63Z"/><path d="M57.97 -84.25L32.98 -40.94L70.03 -1.63L89.66 -35.65C86.56 -62.20 73.60 -76.70 57.97 -84.29Z"/><path d="M-16.75 -96.83L124.25 5.17L134.75 -9.53L-6.25 -111.53Z"/></g></g><g id="Regular-S" transform="matrix(1 0 0 1 1405.73 696)"><g transform="translate(0 22)"><path d="M88.39 -103.70C71.42 -102.14 62.99 -92.38 59.80 -87.44L10.27 -1.63L70.03 -1.63L128.98 -103.70L88.39 -103.70Z"/><path d="M89.71 -35.57C80.72 -112.84 -11.43 -88.07 -11.43 -88.07L70.07 -1.63Z"/><path d="M57.97 -84.25L32.98 -40.94L70.03 -1.63L89.66 -35.65C86.56 -62.20 73.60 -76.70 57.97 -84.29Z"/><path d="M-16.75 -96.83L124.25 5.17L134.75 -9.53L-6.25 -111.53Z"/></g></g><g id="Medium-S" transform="matrix(1 0 0 1 1701.85 696)"><g transform="translate(0 22)"><path d="M88.39 -103.70C71.42 -102.14 62.99 -92.38 59.80 -87.44L10.27 -1.63L70.03 -1.63L128.98 -103.70L88.39 -103.70Z"/><path d="M89.71 -35.57C80.72 -112.84 -11.43 -88.07 -11.43 -88.07L70.07 -1.63Z"/><path d="M57.97 -84.25L32.98 -40.94L70.03 -1.63L89.66 -35.65C86.56 -62.20 73.60 -76.70 57.97 -84.29Z"/><path d="M-16.75 -96.83L124.25 5.17L134.75 -9.53L-6.25 -111.53Z"/></g></g><g id="Semibold-S" transform="matrix(1 0 0 1 1998.1 696)"><g transform="translate(0 22)"><path d="M88.39 -103.70C71.42 -102.14 62.99 -92.38 59.80 -87.44L10.27 -1.63L70.03 -1.63L128.98 -103.70L88.39 -103.70Z"/><path d="M89.71 -35.57C80.72 -112.84 -11.43 -88.07 -11.43 -88.07L70.07 -1.63Z"/><path d="M57.97 -84.25L32.98 -40.94L70.03 -1.63L89.66 -35.65C86.56 -62.20 73.60 -76.70 57.97 -84.29Z"/><path d="M-16.75 -96.83L124.25 5.17L134.75 -9.53L-6.25 -111.53Z"/></g></g><g id="Bold-S" transform="matrix(1 0 0 1 2294.23 696)"><g transform="translate(0 22)"><path d="M88.39 -103.70C71.42 -102.14 62.99 -92.38 59.80 -87.44L10.27 -1.63L70.03 -1.63L128.98 -103.70L88.39 -103.70Z"/><path d="M89.71 -35.57C80.72 -112.84 -11.43 -88.07 -11.43 -88.07L70.07 -1.63Z"/><path d="M57.97 -84.25L32.98 -40.94L70.03 -1.63L89.66 -35.65C86.56 -62.20 73.60 -76.70 57.97 -84.29Z"/><path d="M-16.75 -96.83L124.25 5.17L134.75 -9.53L-6.25 -111.53Z"/></g></g><g id="Heavy-S" transform="matrix(1 0 0 1 2590.13 696)"><g transform="translate(0 22)"><path d="M88.39 -103.70C71.42 -102.14 62.99 -92.38 59.80 -87.44L10.27 -1.63L70.03 -1.63L128.98 -103.70L88.39 -103.70Z"/><path d="M89.71 -35.57C80.72 -112.84 -11.43 -88.07 -11.43 -88.07L70.07 -1.63Z"/><path d="M57.97 -84.25L32.98 -40.94L70.03 -1.63L89.66 -35.65C86.56 -62.20 73.60 -76.70 57.97 -84.29Z"/><path d="M-16.75 -96.83L124.25 5.17L134.75 -9.53L-6.25 -111.53Z"/></g></g><g id="Black-S" transform="matrix(1 0 0 1 2886.03 696)"><g transform="translate(0 22)"><path d="M88.39 -103.70C71.42 -102.14 62.99 -92.38 59.80 -87.44L10.27 -1.63L70.03 -1.63L128.98 -103.70L88.39 -103.70Z"/><path d="M89.71 -35.57C80.72 -112.84 -11.43 -88.07 -11.43 -88.07L70.07 -1.63Z"/><path d="M57.97 -84.25L32.98 -40.94L70.03 -1.63L89.66 -35.65C86.56 -62.20 73.60 -76.70 57.97 -84.29Z"/><path d="M-16.75 -96.83L124.25 5.17L134.75 -9.53L-6.25 -111.53Z"/></g></g><g id="Ultralight-M" transform="matrix(1 0 0 1 506.415 1126)"><g transform="translate(0 22)"><path d="M88.39 -103.70C71.42 -102.14 62.99 -92.38 59.80 -87.44L10.27 -1.63L70.03 -1.63L128.98 -103.70L88.39 -103.70Z"/><path d="M89.71 -35.57C80.72 -112.84 -11.43 -88.07 -11.43 -88.07L70.07 -1.63Z"/><path d="M57.97 -84.25L32.98 -40.94L70.03 -1.63L89.66 -35.65C86.56 -62.20 73.60 -76.70 57.97 -84.29Z"/><path d="M-16.75 -96.83L124.25 5.17L134.75 -9.53L-6.25 -111.53Z"/></g></g><g id="Thin-M" transform="matrix(1 0 0 1 802.565 1126)"><g transform="translate(0 22)"><path d="M88.39 -103.70C71.42 -102.14 62.99 -92.38 59.80 -87.44L10.27 -1.63L70.03 -1.63L128.98 -103.70L88.39 -103.70Z"/><path d="M89.71 -35.57C80.72 -112.84 -11.43 -88.07 -11.43 -88.07L70.07 -1.63Z"/><path d="M57.97 -84.25L32.98 -40.94L70.03 -1.63L89.66 -35.65C86.56 -62.20 73.60 -76.70 57.97 -84.29Z"/><path d="M-16.75 -96.83L124.25 5.17L134.75 -9.53L-6.25 -111.53Z"/></g></g><g id="Light-M" transform="matrix(1 0 0 1 1098.18 1126)"><g transform="translate(0 22)"><path d="M88.39 -103.70C71.42 -102.14 62.99 -92.38 59.80 -87.44L10.27 -1.63L70.03 -1.63L128.98 -103.70L88.39 -103.70Z"/><path d="M89.71 -35.57C80.72 -112.84 -11.43 -88.07 -11.43 -88.07L70.07 -1.63Z"/><path d="M57.97 -84.25L32.98 -40.94L70.03 -1.63L89.66 -35.65C86.56 -62.20 73.60 -76.70 57.97 -84.29Z"/><path d="M-16.75 -96.83L124.25 5.17L134.75 -9.53L-6.25 -111.53Z"/></g></g><g id="Regular-M" transform="matrix(1 0 0 1 1394.06 1126)"><g transform="translate(0 22)"><path d="M88.39 -103.70C71.42 -102.14 62.99 -92.38 59.80 -87.44L10.27 -1.63L70.03 -1.63L128.98 -103.70L88.39 -103.70Z"/><path d="M89.71 -35.57C80.72 -112.84 -11.43 -88.07 -11.43 -88.07L70.07 -1.63Z"/><path d="M57.97 -84.25L32.98 -40.94L70.03 -1.63L89.66 -35.65C86.56 -62.20 73.60 -76.70 57.97 -84.29Z"/><path d="M-16.75 -96.83L124.25 5.17L134.75 -9.53L-6.25 -111.53Z"/></g></g><g id="Medium-M" transform="matrix(1 0 0 1 1689.91 1126)"><g transform="translate(0 22)"><path d="M88.39 -103.70C71.42 -102.14 62.99 -92.38 59.80 -87.44L10.27 -1.63L70.03 -1.63L128.98 -103.70L88.39 -103.70Z"/><path d="M89.71 -35.57C80.72 -112.84 -11.43 -88.07 -11.43 -88.07L70.07 -1.63Z"/><path d="M57.97 -84.25L32.98 -40.94L70.03 -1.63L89.66 -35.65C86.56 -62.20 73.60 -76.70 57.97 -84.29Z"/><path d="M-16.75 -96.83L124.25 5.17L134.75 -9.53L-6.25 -111.53Z"/></g></g><g id="Semibold-M" transform="matrix(1 0 0 1 1985.97 1126)"><g transform="translate(0 22)"><path d="M88.39 -103.70C71.42 -102.14 62.99 -92.38 59.80 -87.44L10.27 -1.63L70.03 -1.63L128.98 -103.70L88.39 -103.70Z"/><path d="M89.71 -35.57C80.72 -112.84 -11.43 -88.07 -11.43 -88.07L70.07 -1.63Z"/><path d="M57.97 -84.25L32.98 -40.94L70.03 -1.63L89.66 -35.65C86.56 -62.20 73.60 -76.70 57.97 -84.29Z"/><path d="M-16.75 -96.83L124.25 5.17L134.75 -9.53L-6.25 -111.53Z"/></g></g><g id="Bold-M" transform="matrix(1 0 0 1 2281.8 1126)"><g transform="translate(0 22)"><path d="M88.39 -103.70C71.42 -102.14 62.99 -92.38 59.80 -87.44L10.27 -1.63L70.03 -1.63L128.98 -103.70L88.39 -103.70Z"/><path d="M89.71 -35.57C80.72 -112.84 -11.43 -88.07 -11.43 -88.07L70.07 -1.63Z"/><path d="M57.97 -84.25L32.98 -40.94L70.03 -1.63L89.66 -35.65C86.56 -62.20 73.60 -76.70 57.97 -84.29Z"/><path d="M-16.75 -96.83L124.25 5.17L134.75 -9.53L-6.25 -111.53Z"/></g></g><g id="Heavy-M" transform="matrix(1 0 0 1 2577.7 1126)"><g transform="translate(0 22)"><path d="M88.39 -103.70C71.42 -102.14 62.99 -92.38 59.80 -87.44L10.27 -1.63L70.03 -1.63L128.98 -103.70L88.39 -103.70Z"/><path d="M89.71 -35.57C80.72 -112.84 -11.43 -88.07 -11.43 -88.07L70.07 -1.63Z"/><path d="M57.97 -84.25L32.98 -40.94L70.03 -1.63L89.66 -35.65C86.56 -62.20 73.60 -76.70 57.97 -84.29Z"/><path d="M-16.75 -96.83L124.25 5.17L134.75 -9.53L-6.25 -111.53Z"/></g></g><g id="Black-M" transform="matrix(1 0 0 1 2873.6 1126)"><g transform="translate(0 22)"><path d="M88.39 -103.70C71.42 -102.14 62.99 -92.38 59.80 -87.44L10.27 -1.63L70.03 -1.63L128.98 -103.70L88.39 -103.70Z"/><path d="M89.71 -35.57C80.72 -112.84 -11.43 -88.07 -11.43 -88.07L70.07 -1.63Z"/><path d="M57.97 -84.25L32.98 -40.94L70.03 -1.63L89.66 -35.65C86.56 -62.20 73.60 -76.70 57.97 -84.29Z"/><path d="M-16.75 -96.83L124.25 5.17L134.75 -9.53L-6.25 -111.53Z"/></g></g><g id="Ultralight-L" transform="matrix(1 0 0 1 491.205 1556)"><g transform="translate(0 22)"><path d="M88.39 -103.70C71.42 -102.14 62.99 -92.38 59.80 -87.44L10.27 -1.63L70.03 -1.63L128.98 -103.70L88.39 -103.70Z"/><path d="M89.71 -35.57C80.72 -112.84 -11.43 -88.07 -11.43 -88.07L70.07 -1.63Z"/><path d="M57.97 -84.25L32.98 -40.94L70.03 -1.63L89.66 -35.65C86.56 -62.20 73.60 -76.70 57.97 -84.29Z"/><path d="M-16.75 -96.83L124.25 5.17L134.75 -9.53L-6.25 -111.53Z"/></g></g><g id="Thin-L" transform="matrix(1 0 0 1 787.282 1556)"><g transform="translate(0 22)"><path d="M88.39 -103.70C71.42 -102.14 62.99 -92.38 59.80 -87.44L10.27 -1.63L70.03 -1.63L128.98 -103.70L88.39 -103.70Z"/><path d="M89.71 -35.57C80.72 -112.84 -11.43 -88.07 -11.43 -88.07L70.07 -1.63Z"/><path d="M57.97 -84.25L32.98 -40.94L70.03 -1.63L89.66 -35.65C86.56 -62.20 73.60 -76.70 57.97 -84.29Z"/><path d="M-16.75 -96.83L124.25 5.17L134.75 -9.53L-6.25 -111.53Z"/></g></g><g id="Light-L" transform="matrix(1 0 0 1 1082.77 1556)"><g transform="translate(0 22)"><path d="M88.39 -103.70C71.42 -102.14 62.99 -92.38 59.80 -87.44L10.27 -1.63L70.03 -1.63L128.98 -103.70L88.39 -103.70Z"/><path d="M89.71 -35.57C80.72 -112.84 -11.43 -88.07 -11.43 -88.07L70.07 -1.63Z"/><path d="M57.97 -84.25L32.98 -40.94L70.03 -1.63L89.66 -35.65C86.56 -62.20 73.60 -76.70 57.97 -84.29Z"/><path d="M-16.75 -96.83L124.25 5.17L134.75 -9.53L-6.25 -111.53Z"/></g></g><g id="Regular-L" transform="matrix(1 0 0 1 1378.56 1556)"><g transform="translate(0 22)"><path d="M88.39 -103.70C71.42 -102.14 62.99 -92.38 59.80 -87.44L10.27 -1.63L70.03 -1.63L128.98 -103.70L88.39 -103.70Z"/><path d="M89.71 -35.57C80.72 -112.84 -11.43 -88.07 -11.43 -88.07L70.07 -1.63Z"/><path d="M57.97 -84.25L32.98 -40.94L70.03 -1.63L89.66 -35.65C86.56 -62.20 73.60 -76.70 57.97 -84.29Z"/><path d="M-16.75 -96.83L124.25 5.17L134.75 -9.53L-6.25 -111.53Z"/></g></g><g id="Medium-L" transform="matrix(1 0 0 1 1674.31 1556)"><g transform="translate(0 22)"><path d="M88.39 -103.70C71.42 -102.14 62.99 -92.38 59.80 -87.44L10.27 -1.63L70.03 -1.63L128.98 -103.70L88.39 -103.70Z"/><path d="M89.71 -35.57C80.72 -112.84 -11.43 -88.07 -11.43 -88.07L70.07 -1.63Z"/><path d="M57.97 -84.25L32.98 -40.94L70.03 -1.63L89.66 -35.65C86.56 -62.20 73.60 -76.70 57.97 -84.29Z"/><path d="M-16.75 -96.83L124.25 5.17L134.75 -9.53L-6.25 -111.53Z"/></g></g><g id="Semibold-L" transform="matrix(1 0 0 1 1970.27 1556)"><g transform="translate(0 22)"><path d="M88.39 -103.70C71.42 -102.14 62.99 -92.38 59.80 -87.44L10.27 -1.63L70.03 -1.63L128.98 -103.70L88.39 -103.70Z"/><path d="M89.71 -35.57C80.72 -112.84 -11.43 -88.07 -11.43 -88.07L70.07 -1.63Z"/><path d="M57.97 -84.25L32.98 -40.94L70.03 -1.63L89.66 -35.65C86.56 -62.20 73.60 -76.70 57.97 -84.29Z"/><path d="M-16.75 -96.83L124.25 5.17L134.75 -9.53L-6.25 -111.53Z"/></g></g><g id="Bold-L" transform="matrix(1 0 0 1 2266 1556)"><g transform="translate(0 22)"><path d="M88.39 -103.70C71.42 -102.14 62.99 -92.38 59.80 -87.44L10.27 -1.63L70.03 -1.63L128.98 -103.70L88.39 -103.70Z"/><path d="M89.71 -35.57C80.72 -112.84 -11.43 -88.07 -11.43 -88.07L70.07 -1.63Z"/><path d="M57.97 -84.25L32.98 -40.94L70.03 -1.63L89.66 -35.65C86.56 -62.20 73.60 -76.70 57.97 -84.29Z"/><path d="M-16.75 -96.83L124.25 5.17L134.75 -9.53L-6.25 -111.53Z"/></g></g><g id="Heavy-L" transform="matrix(1 0 0 1 2561.9 1556)"><g transform="translate(0 22)"><path d="M88.39 -103.70C71.42 -102.14 62.99 -92.38 59.80 -87.44L10.27 -1.63L70.03 -1.63L128.98 -103.70L88.39 -103.70Z"/><path d="M89.71 -35.57C80.72 -112.84 -11.43 -88.07 -11.43 -88.07L70.07 -1.63Z"/><path d="M57.97 -84.25L32.98 -40.94L70.03 -1.63L89.66 -35.65C86.56 -62.20 73.60 -76.70 57.97 -84.29Z"/><path d="M-16.75 -96.83L124.25 5.17L134.75 -9.53L-6.25 -111.53Z"/></g></g><g id="Black-L" transform="matrix(1 0 0 1 2857.8 1556)"><g transform="translate(0 22)"><path d="M88.39 -103.70C71.42 -102.14 62.99 -92.38 59.80 -87.44L10.27 -1.63L70.03 -1.63L128.98 -103.70L88.39 -103.70Z"/><path d="M89.71 -35.57C80.72 -112.84 -11.43 -88.07 -11.43 -88.07L70.07 -1.63Z"/><path d="M57.97 -84.25L32.98 -40.94L70.03 -1.63L89.66 -35.65C86.56 -62.20 73.60 -76.70 57.97 -84.29Z"/><path d="M-16.75 -96.83L124.25 5.17L134.75 -9.53L-6.25 -111.53Z"/></g></g></g></svg>
